# xmcd
#
# Track frame offsets: 
#        182
#        23265
#        45762
#        59502
#        74097
#        90767
#        112922
#        138105
#        164797
#        200967
#        235345
#        248850
#
# Disc length: 3634 seconds
#
# Revision: 1
# Processed by: cddbd v1.5.2PL0 Copyright (c) Steve Scherf et al.
# Submitted via: ExactAudioCopy v1.0b4
#
DISCID=9d0e300c
DTITLE=Luciano Pavarotti / Golden Voices of 3 Tenors, The, Cd 1 Lucian
DTITLE=o Pavarotti
DYEAR=
DGENRE=Opera
TTITLE0=Luciano Pavarotti  Dir. Nono Bonavolonta / Una furtiva lacrima
TTITLE0= - L´Elisir D`Amore, 
TTITLE1=Luciano Pavarotti, Dir. Nono Bonavolonta / Che gelida manina -
TTITLE1= La Boheme
TTITLE2=Luciano Pavarotti, Cond. Dianfranco Masini / Nessun Dorma - Tu
TTITLE2=randot
TTITLE3=Luciano Pavarotti, Soprano: Joan Sutherland, Cond. Richard Bon
TTITLE3=ynge / Brindisi - La Traviata
TTITLE4=Luciano Pavarotti, Dir. Nono Bonavolonta / Quando le sere al p
TTITLE4=lacido - Luisa Miller
TTITLE5=Luciano Pavarotti, Soprano: Joan Sutherland, Cond. Richard Bon
TTITLE5=ynge / Parigi O Cara - La Traviata
TTITLE6=Luciano Pavarotti, Cond. Carlo Maria Giulini / Cajus Animam - 
TTITLE6=Stabat Mater
TTITLE7=Luciano Pavarott, Soprano Mirelli Freni, Cond. ERmanno Wolf Fe
TTITLE7=rrari / Dunque è proprio finita - La Boheme
TTITLE8=Luciano Pavarotti, Dir. Nono Bonavolonta  / Tombe degli avi mi
TTITLE8=ei - Luia di Lammermoor
TTITLE9=Luciano Pavarotti, Cond. Richard Bonynge / Ah mes amis - La Fi
TTITLE9=lle du Régiment
TTITLE10=Luciano Pavarotti, soprano Gundula Janowitz, Cond. John Pritc
TTITLE10=hard / Spiegarti non poss'io - Idomeno Re di Crete
TTITLE11=Luciano Pavarotti, Cond. John Pritchard / Padre, mio caro pad
TTITLE11=re - Idomeno Re di Creta
EXTD=
EXTT0=
EXTT1=
EXTT2=
EXTT3=
EXTT4=
EXTT5=
EXTT6=
EXTT7=
EXTT8=
EXTT9=
EXTT10=
EXTT11=
PLAYORDER=
.
